<svg width="142" height="49" viewBox="0 0 142 49" fill="none" xmlns="http://www.w3.org/2000/svg">
<path fill-rule="evenodd" clip-rule="evenodd" d="M0.0462173 4.66773C0.0462173 7.01382 1.38652 9.89755 2.01045 11.8771C2.9348 14.8341 2.4033 16.7892 3.55873 19.5018C5.3612 23.7541 8.20356 25.6359 12.5249 26.3201C13.2644 26.4423 13.9114 26.2468 14.466 26.6134C12.9871 26.98 11.9009 27.4932 9.65941 27.1266C7.11746 26.7112 5.93892 27.6398 5.93892 30.5969C5.93892 34.9469 7.18678 39.7124 8.55019 43.3048C8.85061 44.0869 9.08169 44.8933 9.47454 45.4798C10.5144 47.0195 11.6468 47.9726 12.8715 48.0703H13.2412C14.05 48.0214 14.9051 47.5571 15.7601 46.6285C16.0836 46.2863 16.4302 45.9686 16.6844 45.6265C17.5394 44.5023 18.3483 43.1826 19.0646 41.9118L19.781 40.5433C20.0121 40.0545 20.1738 39.6146 20.4049 39.1014C20.844 38.1483 21.1906 37.1708 21.5372 36.1933C22.3923 33.6761 22.7158 32.4053 23.3859 29.937C23.6632 28.8862 23.9637 27.1511 24.4258 26.8089C25.4657 27.6154 24.7262 32.0632 25.9741 33.0163C26.598 32.8452 26.7598 31.721 26.7598 31.0123C26.7598 31.0123 24.7031 25.587 26.0665 19.5996C26.1359 19.2819 26.2514 18.9153 26.2745 18.6465C26.3207 18.2066 26.2976 17.8889 26.3669 17.449C26.598 15.9338 25.9048 17.0091 25.1422 16.2515C24.9111 16.0316 24.8418 15.8605 24.6569 15.5917C24.033 14.7852 23.6632 14.1254 23.3166 13.1479C22.9931 12.2681 22.7389 11.0217 22.6234 9.9953C22.4847 8.70007 22.8775 9.0422 22.4154 8.70007C22.0225 9.01777 22.3692 10.5085 22.4847 11.095C22.762 12.7813 23.2242 13.9054 24.0792 15.274C24.2641 15.5673 24.4489 15.8361 24.6338 16.1049C24.8649 16.4226 25.096 16.5937 25.304 16.9114C24.1485 18.7198 25.4657 18.1088 25.1884 19.3796H24.9573C24.4258 17.0091 20.9595 11.3639 19.4344 9.38434C17.5626 6.9405 15.2748 4.93655 12.7329 3.32362C12.1782 2.95705 11.6468 2.71266 11.0459 2.39496C9.40521 1.51518 5.19944 0 3.2121 0C0.762585 0 0 2.39496 0 4.56998L0.0462173 4.66773Z" fill="#F03033"/>
<path fill-rule="evenodd" clip-rule="evenodd" d="M48.7366 25.4399C48.7366 22.9959 48.5286 20.1365 49.9382 18.2547C50.308 17.7659 50.9319 17.3993 51.5558 17.1549C52.8037 16.6661 54.352 16.7638 55.7385 16.7638C61.2846 16.7638 60.6606 21.1385 61.0073 23.5092C61.1459 24.4134 60.8686 26.9552 60.6375 27.9327C60.1291 29.9857 59.0661 31.0121 56.917 31.3787C55.9003 31.5498 53.4739 31.5009 52.5957 31.3543C51.2554 31.1099 50.2618 30.5478 49.684 29.5213C49.0832 28.4704 48.7597 27.0774 48.7597 25.4643L48.7366 25.4399ZM44.8543 22.9715C44.8543 26.3686 44.7619 29.6924 46.8186 32.1608C49.1756 34.9958 53.289 34.6048 56.8246 34.6048C58.0956 34.6048 59.4821 34.2626 60.3833 33.9205C64.7509 32.2586 64.7971 27.2973 64.7971 22.9959C64.7971 16.7394 62.1165 13.6111 56.1545 13.6111C53.2428 13.6111 49.8227 13.3912 47.5349 15.3952C46.7492 16.0795 46.6106 16.2017 46.056 17.2282C45.2241 18.6946 44.8543 21.1141 44.8543 22.9959V22.9715Z" fill="white"/>
<path fill-rule="evenodd" clip-rule="evenodd" d="M86.7965 25.4404C86.7965 22.9965 86.5885 20.2594 87.9519 18.3288C89.1767 16.5936 91.8573 16.7647 93.7984 16.7647C97.0105 16.7647 98.5126 18.231 98.9054 21.237C99.2752 24.1207 99.2058 27.7132 98.0042 29.6683C97.3803 30.6703 96.3635 31.159 94.977 31.4034C94.0064 31.5745 91.4876 31.55 90.6556 31.3545C87.7671 30.7436 86.7965 28.6663 86.7965 25.4648V25.4404ZM82.9143 23.0943C82.9143 26.4913 82.8449 29.7171 84.8785 32.161C87.2125 34.947 91.2103 34.6049 94.6765 34.6049C97.1261 34.6049 99.2983 33.9206 100.916 32.161C102.903 30.0104 102.88 26.1247 102.88 22.9721C102.88 16.4226 99.9453 13.5877 94.2375 13.5877C91.3027 13.5877 87.9057 13.3677 85.618 15.3717C84.4394 16.4226 83.9079 17.2779 83.4458 18.9397C83.0991 20.1372 82.9374 21.5791 82.9374 23.0943H82.9143Z" fill="white"/>
<path fill-rule="evenodd" clip-rule="evenodd" d="M105.099 17.3509V34.3609H108.865V18.0596C108.865 17.4731 109.327 17.0087 109.859 17.0087H116.745C119.749 17.0087 118.871 22.6543 118.155 23.4363C116.699 25.0982 111.084 22.7276 111.084 25.4404C111.084 27.1023 111.823 27.5666 113.163 28.9841L118.155 34.1653C118.548 34.5075 119.564 34.3609 120.42 34.3609C121.275 34.3609 122.13 34.3609 122.961 34.3609C122.569 33.7254 121.806 33.1878 121.159 32.5034L116.56 27.9821C116.26 27.6644 115.775 27.2978 115.636 26.9556C116.653 26.9556 117.716 26.9801 118.756 26.9556C119.588 26.9312 120.512 26.4424 120.997 26.0269C122.684 24.6094 122.638 21.4079 122.638 19.2083C122.638 15.9823 120.928 13.8071 117.97 13.8071H107.987C107.063 13.8071 106.231 14.2226 105.792 14.7847C105.306 15.3957 105.099 16.2511 105.099 17.3264V17.3509Z" fill="white"/>
<path fill-rule="evenodd" clip-rule="evenodd" d="M124.625 18.1572C124.625 20.3811 124.556 21.8964 126.312 23.4116C127.098 24.0959 129.108 24.6824 130.148 25.0001C131.442 25.3667 132.898 25.9777 134.192 26.3687C137.173 27.2485 137.381 27.5662 137.381 29.5702C137.381 31.2809 136.203 31.2076 134.608 31.2076H121.298C121.436 31.7697 122.153 32.1607 122.777 32.8206C123.262 33.3338 123.585 33.5537 123.817 34.0669C123.955 34.3602 123.817 34.5068 124.186 34.5068H136.711C140.016 34.5068 141.379 32.3562 141.379 29.228C141.379 27.8839 141.102 26.2465 140.201 25.3178L139.854 24.9757C139.577 24.7313 139.392 24.5846 139.068 24.4136C137.381 23.5338 133.314 22.3607 131.604 21.7497C129.686 21.0654 128.392 21.1388 128.392 18.7926C128.392 17.5951 129.131 17.033 130.287 17.033H141.818V13.856H128.276C127.907 13.856 127.075 14.1248 126.798 14.2714C126.543 14.4181 125.827 14.9557 125.642 15.1757C125.087 15.8111 124.625 17.0086 124.625 18.2061V18.1572Z" fill="white"/>
<path fill-rule="evenodd" clip-rule="evenodd" d="M26.5523 23.5586C26.5523 27.4687 26.6678 30.6945 29.7413 33.0895C31.0354 34.0914 33.1151 34.458 34.8714 34.458H42.9594V31.1833H35.634C31.2433 31.1833 30.4114 28.3729 30.4114 24.3895C30.4114 20.9682 30.9429 17.5713 34.4323 17.1314C37.4133 16.7649 41.8964 16.9848 45.1779 16.9848C45.4321 15.934 46.7492 14.7854 47.6274 14.1744L48.0664 13.8323C45.5476 13.8323 34.3861 13.6612 32.8609 13.9545C28.4241 14.761 26.5292 18.0845 26.5292 23.5831L26.5523 23.5586Z" fill="white"/>
<path fill-rule="evenodd" clip-rule="evenodd" d="M67.5932 32.3561C67.5932 33.187 68.0092 33.7247 68.5407 34.0424C69.2339 34.4579 69.7885 34.3601 70.8053 34.3601H86.1032C85.9877 34.2624 86.0801 34.3357 85.9183 34.2135C85.8259 34.1402 85.8259 34.1402 85.7104 34.0668C85.5024 33.9446 85.3868 33.8713 85.2251 33.7736C84.5318 33.3092 83.3071 32.1117 83.1222 31.3053H73.5783C72.5384 31.3053 71.2444 31.4275 71.2444 30.3766V13.8315H67.5932V32.3561Z" fill="white"/>
<path fill-rule="evenodd" clip-rule="evenodd" d="M108.311 41.9853C108.311 40.9345 108.218 40.3969 108.426 39.5172C109.166 39.1507 110.414 39.1751 110.414 39.8593C110.414 42.9872 110.76 42.6695 108.75 42.6695C108.403 42.6695 108.311 42.3274 108.311 41.9609V41.9853ZM107.525 39.8838C107.525 42.2052 107.132 43.4026 109.073 43.4026C109.651 43.4026 110.021 43.256 110.414 43.0605C110.414 44.038 110.552 44.3068 110.044 44.5512C109.466 44.8444 108.38 44.6245 107.756 44.5756C107.756 45.4553 107.802 45.3087 109.535 45.3087C110.575 45.3087 111.315 44.8933 111.315 43.7936V38.8574C111.107 38.8574 110.991 38.8574 110.783 38.8818C110.76 38.8818 110.714 38.9063 110.691 38.9063L110.437 38.9796C110.437 38.9796 107.548 38.0021 107.548 39.9082L107.525 39.8838Z" fill="#F03033"/>
<path fill-rule="evenodd" clip-rule="evenodd" d="M121.945 42.5713C121.506 42.669 119.957 42.9867 119.957 42.2291C119.957 39.3454 119.657 39.2965 121.067 39.2965C121.459 39.2965 121.69 39.3942 121.945 39.5409C122.083 40.1763 122.176 42.0336 121.945 42.5957V42.5713ZM119.056 40.2252C119.056 42.3024 118.733 43.4022 120.835 43.4022C121.321 43.4022 121.737 43.2311 122.06 43.06C122.06 45.284 121.367 44.5752 119.403 44.5752C119.403 45.455 119.241 45.284 121.298 45.284C122.014 45.284 122.846 44.8929 122.846 44.1109V38.8322L121.875 38.881C121.275 38.7833 122.222 38.71 120.512 38.71C119.565 38.71 119.079 39.2232 119.079 40.2252H119.056Z" fill="#F03033"/>
<path fill-rule="evenodd" clip-rule="evenodd" d="M74.8031 42.2048C74.8031 39.5898 74.5258 39.2721 75.6812 39.2721C77.2295 39.2721 76.906 39.6387 76.906 42.2048C76.906 42.8891 74.8031 42.8891 74.8031 42.2048ZM76.906 37.9768C76.906 38.5634 76.9984 38.49 77.0215 39.0277C76.0972 38.5145 73.925 38.319 73.925 39.8586C73.925 42.0826 73.5321 43.3779 75.5888 43.3779C76.2358 43.3779 76.6518 43.1824 77.0215 42.9136V43.2557H77.8072V36.8037H76.9291V37.9768H76.906Z" fill="#F03033"/>
<path fill-rule="evenodd" clip-rule="evenodd" d="M83.7924 39.7367C83.7924 39.0767 85.6873 39.0767 85.6873 39.7367V40.5678H83.7924V39.7367ZM82.9142 39.9811C82.9142 41.8634 82.4983 43.3789 84.8091 43.3789C85.3638 43.3789 86.0339 43.2567 86.473 43.1345C86.473 42.0345 86.2188 42.67 84.8091 42.67C83.6306 42.67 83.8155 42.1078 83.8155 41.2522H86.5885C86.5885 39.1011 86.6578 38.6611 84.3701 38.6611C83.5613 38.6611 82.9373 39.1256 82.9373 39.9567L82.9142 39.9811Z" fill="#F03033"/>
<path fill-rule="evenodd" clip-rule="evenodd" d="M70.0427 42.083C70.0427 40.9587 70.0427 41.1543 71.9376 41.1543C71.9376 43.1584 72.0532 42.6696 70.1583 42.6696C70.089 42.4008 70.0427 42.4008 70.0427 42.083ZM69.4881 39.0279V39.3701C71.6603 39.3701 71.9376 38.7102 71.9376 40.5432C70.4125 40.5432 69.1646 40.25 69.1646 41.9608C69.1646 43.5739 70.6204 43.4517 71.591 43.2318C72.0532 43.134 72.0763 43.2562 72.8389 43.2562C72.8389 38.2702 73.2779 38.6857 69.8348 38.6857C69.5806 38.6857 69.5112 38.759 69.5112 39.0279H69.4881Z" fill="#F03033"/>
<path fill-rule="evenodd" clip-rule="evenodd" d="M124.833 40.1038C124.833 39.7861 124.88 39.7861 124.949 39.5173C125.781 39.1018 126.104 39.3462 126.728 39.3951L126.844 40.5681H124.856V40.1038H124.833ZM124.048 39.8594C124.048 41.3502 123.817 42.5232 124.579 43.0609C125.342 43.5741 126.705 43.3541 127.491 43.1586V42.4499C127.167 42.621 124.833 43.1831 124.833 41.7412V41.2769C128.138 41.2769 127.722 41.5701 127.722 40.226C127.722 38.5642 126.52 38.7108 125.503 38.7108C124.764 38.7108 124.071 39.1263 124.071 39.8839L124.048 39.8594Z" fill="#F03033"/>
<path fill-rule="evenodd" clip-rule="evenodd" d="M115.197 42.0823C115.197 40.9583 115.197 41.1538 117.092 41.1538C117.092 43.1575 117.207 42.6688 115.313 42.6688C115.266 42.4 115.197 42.4 115.197 42.0823ZM114.642 39.0278V39.3699C117.184 39.15 117.092 39.0767 117.092 40.5429C115.775 40.5429 114.319 40.2741 114.319 41.838C114.319 44.2572 116.861 43.0842 117.161 43.1331L117.277 43.182C117.3 43.182 117.323 43.2064 117.346 43.2064C117.623 43.2797 117.67 43.2553 117.97 43.2553C117.97 38.2703 118.409 38.6857 114.966 38.6857C114.712 38.6857 114.642 38.759 114.642 39.0278Z" fill="#F03033"/>
<path fill-rule="evenodd" clip-rule="evenodd" d="M128.831 38.8077V43.2568C129.802 43.2568 129.732 43.3301 129.732 42.3279C129.709 40.1033 129.409 39.2722 130.726 39.2722C130.957 39.2722 131.442 39.4189 131.604 39.5167C131.604 40.1767 131.604 40.8367 131.604 41.5212C131.604 43.2324 131.35 43.2812 132.482 43.2812C132.482 39.1744 132.875 38.71 130.703 38.71C130.218 38.71 129.917 38.9544 129.802 38.9544L128.808 38.8322L128.831 38.8077Z" fill="#F03033"/>
<path fill-rule="evenodd" clip-rule="evenodd" d="M102.649 38.8081V43.2558H103.527V39.859C103.527 39.1014 104.983 39.2969 105.422 39.5168C105.653 40.5677 105.538 42.1317 105.538 43.2803H106.323V39.7612C106.323 38.0017 103.666 38.9548 103.527 38.9303L102.649 38.8326V38.8081Z" fill="#F03033"/>
<path fill-rule="evenodd" clip-rule="evenodd" d="M138.144 45.1377H139.022C139.114 44.6978 139.369 44.0868 139.53 43.5735L141.125 38.8076H140.247C140.131 39.3697 139.946 39.9563 139.761 40.5185C139.577 41.0806 139.53 41.9116 139.138 42.2048C139.091 41.716 138.814 40.9828 138.652 40.494C138.467 39.9074 138.259 39.3697 138.144 38.8076H137.266C137.312 39.3453 137.589 39.883 137.774 40.3718C137.982 40.9584 138.837 43.0358 138.722 43.5002L138.144 45.1133V45.1377Z" fill="#F03033"/>
<path fill-rule="evenodd" clip-rule="evenodd" d="M96.1093 39.7365C96.1093 41.7405 97.0798 40.9829 98.6512 41.3739V42.547C97.4727 42.8403 97.1723 42.547 96.2017 42.547V43.2557C97.7269 43.2557 99.5294 43.9889 99.5294 41.6183C99.5294 40.2986 97.9811 40.6896 96.9874 40.4452C96.9874 38.6856 97.542 39.3455 99.3214 39.3943V38.6856C98.2584 38.6856 96.1093 38.4168 96.1093 39.7365Z" fill="#F03033"/>
<path fill-rule="evenodd" clip-rule="evenodd" d="M91.1178 38.466C91.1178 38.9303 90.8405 38.8081 90.1241 38.8081V39.3947H91.1178C91.1178 42.4008 90.7018 43.3784 92.6661 43.3784C93.0589 43.3784 93.1051 43.2807 93.4518 43.2562V42.6697C91.7417 42.6697 91.9035 43.3051 91.9035 39.3947H93.4518V38.8081C91.6262 38.8081 91.9035 39.1014 91.9035 37.3906H91.1178V38.4415V38.466Z" fill="#F03033"/>
<path fill-rule="evenodd" clip-rule="evenodd" d="M79.9101 43.2563H80.9038C81.158 42.6697 81.3891 41.7653 81.6202 41.0809C81.8744 40.2987 82.1748 39.6143 82.3596 38.8076H81.574C81.2966 39.3943 80.7883 41.9853 80.3492 42.3275C80.2568 41.2764 79.4248 39.8587 79.3555 38.8076H78.4774C78.5236 39.4432 79.7253 42.4253 79.9101 43.2563Z" fill="#F03033"/>
<path fill-rule="evenodd" clip-rule="evenodd" d="M133.591 40.4457C133.591 42.426 133.337 43.7952 136.295 43.3062C136.919 43.2084 136.919 43.3307 136.919 42.5483C136.157 42.5727 135.764 42.8417 134.585 42.5483C134.377 41.6437 134.47 40.9102 134.47 39.8589C134.47 38.9298 136.434 39.321 136.804 39.5166V38.8076C136.11 38.6364 134.308 38.4653 133.846 39.1988C133.684 39.4677 133.591 40.03 133.591 40.4457Z" fill="#F03033"/>
<path fill-rule="evenodd" clip-rule="evenodd" d="M88.4603 39.1502V38.808H87.6746V43.2559H88.5527C88.5527 39.4679 88.1598 39.3945 89.9854 39.3945V38.6858C89.1073 38.6858 89.1766 38.6369 88.4372 39.1502H88.4603Z" fill="#F03033"/>
<path fill-rule="evenodd" clip-rule="evenodd" d="M94.2144 43.2563H95.1156V38.8076H94.2144V43.2563Z" fill="#F03033"/>
<path fill-rule="evenodd" clip-rule="evenodd" d="M100.546 43.2563H101.424V38.8076H100.546V43.2563Z" fill="#F03033"/>
<path fill-rule="evenodd" clip-rule="evenodd" d="M94.2144 38.0996H94.769C95.0231 38.0996 95.0925 38.0263 95.0925 37.7573V37.1704H94.2144V38.0996Z" fill="#F03033"/>
<path fill-rule="evenodd" clip-rule="evenodd" d="M100.546 38.0996H101.101C101.355 38.0996 101.424 38.0263 101.424 37.7573V37.1704H100.546V38.0996Z" fill="#F03033"/>
</svg>
