<svg width="101" height="32" viewBox="0 0 101 32" fill="none" xmlns="http://www.w3.org/2000/svg">
<g clip-path="url(#clip0)">
<path fill-rule="evenodd" clip-rule="evenodd" d="M-0.000277292 3.05104C-0.000277292 4.61567 0.954572 6.53887 1.39907 7.85902C2.05759 9.83111 1.67894 11.135 2.50209 12.9441C3.78619 15.78 5.81113 17.0349 8.8897 17.4913C9.41651 17.5728 9.87747 17.4424 10.2726 17.6869C9.21896 17.9313 8.4452 18.2736 6.8483 18.0291C5.03737 17.7521 4.19777 18.3714 4.19777 20.3435C4.19777 23.2446 5.08676 26.4227 6.05808 28.8186C6.27209 29.3401 6.43672 29.8779 6.71659 30.2691C7.45742 31.2959 8.26411 31.9315 9.13664 31.9967H9.40005C9.97625 31.9641 10.5854 31.6545 11.1945 31.0351C11.425 30.8069 11.6719 30.5951 11.853 30.3669C12.4621 29.6172 13.0384 28.7371 13.5487 27.8896L14.0591 26.9769C14.2237 26.6509 14.3389 26.3575 14.5036 26.0153C14.8163 25.3796 15.0633 24.7277 15.3102 24.0758C15.9194 22.3971 16.1498 21.5495 16.6273 19.9034C16.8248 19.2026 17.0388 18.0454 17.3681 17.8172C18.1089 18.3551 17.5821 21.3214 18.4711 21.957C18.9156 21.8429 19.0309 21.0932 19.0309 20.6205C19.0309 20.6205 17.5657 17.0023 18.537 13.0093C18.5864 12.7974 18.6687 12.5529 18.6851 12.3736C18.7181 12.0803 18.7016 11.8684 18.751 11.575C18.9156 10.5645 18.4217 11.2817 17.8785 10.7764C17.7138 10.6297 17.6644 10.5156 17.5327 10.3364C17.0882 9.79851 16.8248 9.35846 16.5779 8.70653C16.3474 8.1198 16.1663 7.28859 16.084 6.60406C15.9852 5.74025 16.2651 5.96843 15.9358 5.74025C15.656 5.95213 15.9029 6.94632 15.9852 7.33748C16.1828 8.46206 16.512 9.21178 17.1212 10.1245C17.2529 10.3201 17.3846 10.4993 17.5163 10.6786C17.6809 10.8905 17.8455 11.0046 17.9937 11.2165C17.1705 12.4225 18.1089 12.0151 17.9114 12.8626H17.7467C17.3681 11.2817 14.8987 7.51676 13.8121 6.1966C12.4786 4.56678 10.8488 3.23032 9.03786 2.15464C8.64275 1.91017 8.26411 1.74718 7.83607 1.53531C6.6672 0.948571 3.67095 -0.0619202 2.25514 -0.0619202C0.510073 -0.0619202 -0.0332031 1.53531 -0.0332031 2.98585L-0.000277292 3.05104Z" fill="#F03033"/>
<path fill-rule="evenodd" clip-rule="evenodd" d="M34.6874 16.9045C34.6874 15.2747 34.5392 13.3678 35.5434 12.1129C35.8068 11.7869 36.2513 11.5424 36.6958 11.3794C37.5848 11.0535 38.6879 11.1187 39.6756 11.1187C43.6267 11.1187 43.1822 14.0361 43.4292 15.617C43.5279 16.22 43.3304 17.915 43.1658 18.567C42.8036 19.936 42.0463 20.6205 40.5152 20.865C39.7909 20.9791 38.0623 20.9465 37.4367 20.8487C36.4818 20.6857 35.7739 20.3109 35.3623 19.6263C34.9343 18.9255 34.7038 17.9965 34.7038 16.9208L34.6874 16.9045ZM31.9216 15.2584C31.9216 17.5239 31.8557 19.7404 33.3209 21.3866C35.0002 23.2772 37.9306 23.0164 40.4494 23.0164C41.3548 23.0164 42.3426 22.7882 42.9847 22.56C46.0962 21.4518 46.1291 18.1432 46.1291 15.2747C46.1291 11.1024 44.2194 9.0162 39.972 9.0162C37.8976 9.0162 35.4611 8.86951 33.8313 10.206C33.2715 10.6623 33.1728 10.7438 32.7777 11.4283C32.185 12.4062 31.9216 14.0198 31.9216 15.2747V15.2584Z" fill="#292929"/>
<path fill-rule="evenodd" clip-rule="evenodd" d="M61.8019 16.9045C61.8019 15.2747 61.6537 13.4493 62.625 12.1618C63.4975 11.0046 65.4072 11.1187 66.7901 11.1187C69.0785 11.1187 70.1486 12.0966 70.4284 14.1012C70.6918 16.0244 70.6424 18.4203 69.7864 19.7241C69.3419 20.3924 68.6175 20.7183 67.6297 20.8813C66.9383 20.9954 65.1438 20.9791 64.5512 20.8487C62.4933 20.4413 61.8019 19.0559 61.8019 16.9208V16.9045ZM59.0361 15.3399C59.0361 17.6054 58.9867 19.7567 60.4354 21.3866C62.0982 23.2446 64.9463 23.0164 67.4157 23.0164C69.1608 23.0164 70.7083 22.56 71.8607 21.3866C73.2765 19.9523 73.26 17.3609 73.26 15.2584C73.26 10.8905 71.1693 8.9999 67.1029 8.9999C65.0121 8.9999 62.5921 8.85322 60.9622 10.1897C60.1226 10.8905 59.744 11.4609 59.4147 12.5692C59.1678 13.3678 59.0526 14.3294 59.0526 15.3399H59.0361Z" fill="#292929"/>
<path fill-rule="evenodd" clip-rule="evenodd" d="M74.8403 11.5099V22.8534H77.5238V11.9825C77.5238 11.5913 77.853 11.2817 78.2317 11.2817H83.1376C85.2778 11.2817 84.6522 15.0466 84.1419 15.5681C83.1047 16.6764 79.1042 15.0955 79.1042 16.9046C79.1042 18.0128 79.631 18.3225 80.5859 19.2678L84.1419 22.723C84.4217 22.9512 85.1461 22.8534 85.7552 22.8534C86.3644 22.8534 86.9735 22.8534 87.5662 22.8534C87.2863 22.4297 86.743 22.0711 86.2821 21.6148L83.0059 18.5996C82.7919 18.3877 82.4462 18.1432 82.3474 17.9151C83.0718 17.9151 83.8291 17.9314 84.5699 17.9151C85.1626 17.8988 85.8211 17.5728 86.1668 17.2957C87.3686 16.3504 87.3357 14.2154 87.3357 12.7485C87.3357 10.5971 86.1174 9.14661 84.0102 9.14661H76.8982C76.2397 9.14661 75.647 9.42368 75.3342 9.79854C74.9885 10.206 74.8403 10.7764 74.8403 11.4936V11.5099Z" fill="#292929"/>
<path fill-rule="evenodd" clip-rule="evenodd" d="M88.7515 12.0477C88.7515 13.5309 88.7021 14.5413 89.9533 15.5518C90.5131 16.0082 91.9453 16.3993 92.6862 16.6112C93.6081 16.8557 94.6452 17.2632 95.5672 17.5239C97.6909 18.1107 97.8391 18.3225 97.8391 19.659C97.8391 20.7999 96.9994 20.751 95.8635 20.751H86.3809C86.4796 21.1258 86.99 21.3866 87.4345 21.8267C87.7802 22.1689 88.0107 22.3156 88.1753 22.6579C88.2741 22.8534 88.1753 22.9512 88.4387 22.9512H97.3616C99.7158 22.9512 100.687 21.517 100.687 19.4308C100.687 18.5344 100.49 17.4424 99.8475 16.8231L99.6006 16.5949C99.403 16.4319 99.2713 16.3342 99.0408 16.2201C97.8391 15.6333 94.9416 14.851 93.7233 14.4436C92.3569 13.9872 91.435 14.0361 91.435 12.4715C91.435 11.6729 91.9618 11.298 92.7849 11.298H101V9.17923H91.3527C91.0893 9.17923 90.4966 9.35851 90.299 9.4563C90.1179 9.55409 89.6076 9.91265 89.4759 10.0593C89.0808 10.4831 88.7515 11.2817 88.7515 12.0803V12.0477Z" fill="#292929"/>
<path fill-rule="evenodd" clip-rule="evenodd" d="M18.8829 15.6496C18.8829 18.2573 18.9652 20.4087 21.1548 22.0059C22.0767 22.6742 23.5584 22.9186 24.8096 22.9186H30.5716V20.7347H25.3528C22.2249 20.7347 21.6322 18.8604 21.6322 16.2038C21.6322 13.922 22.0109 11.6566 24.4968 11.3632C26.6205 11.1187 29.8143 11.2654 32.152 11.2654C32.3331 10.5646 33.2715 9.79856 33.8971 9.39111L34.2099 9.16293C32.4154 9.16293 24.4638 9.04884 23.3773 9.24442C20.2164 9.78226 18.8665 11.9988 18.8665 15.6659L18.8829 15.6496Z" fill="#292929"/>
<path fill-rule="evenodd" clip-rule="evenodd" d="M48.1211 21.517C48.1211 22.0711 48.4174 22.4297 48.7961 22.6416C49.29 22.9186 49.6851 22.8535 50.4094 22.8535H61.3079C61.2256 22.7883 61.2914 22.8372 61.1762 22.7557C61.1103 22.7068 61.1103 22.7068 61.028 22.6579C60.8799 22.5764 60.7975 22.5275 60.6823 22.4623C60.1884 22.1526 59.3159 21.354 59.1842 20.8162H52.385C51.6442 20.8162 50.7222 20.8977 50.7222 20.1968V9.16293H48.1211V21.517Z" fill="#292929"/>
<path fill-rule="evenodd" clip-rule="evenodd" d="M77.1289 27.9384C77.1289 27.2376 77.063 26.879 77.2112 26.2923C77.738 26.0478 78.627 26.0641 78.627 26.5205C78.627 28.6066 78.8739 28.3948 77.4417 28.3948C77.1947 28.3948 77.1289 28.1666 77.1289 27.9221V27.9384ZM76.5691 26.5368C76.5691 28.0851 76.2893 28.8837 77.6722 28.8837C78.0837 28.8837 78.3471 28.7859 78.627 28.6555C78.627 29.3075 78.7258 29.4868 78.3636 29.6497C77.952 29.8453 77.1783 29.6986 76.7338 29.666C76.7338 30.2528 76.7667 30.155 78.0014 30.155C78.7422 30.155 79.2691 29.8779 79.2691 29.1445V25.8522C79.1209 25.8522 79.0386 25.8522 78.8904 25.8685C78.8739 25.8685 78.841 25.8848 78.8246 25.8848L78.6435 25.9337C78.6435 25.9337 76.5856 25.2818 76.5856 26.5531L76.5691 26.5368Z" fill="#F03033"/>
<path fill-rule="evenodd" clip-rule="evenodd" d="M86.8419 28.3297C86.5291 28.3949 85.4261 28.6067 85.4261 28.1015C85.4261 26.1783 85.212 26.1457 86.2163 26.1457C86.4961 26.1457 86.6608 26.2109 86.8419 26.3087C86.9406 26.7324 87.0065 27.9711 86.8419 28.346V28.3297ZM84.784 26.765C84.784 28.1504 84.5535 28.8838 86.0516 28.8838C86.3974 28.8838 86.6937 28.7697 86.9242 28.6556C86.9242 30.1388 86.4303 29.6661 85.0309 29.6661C85.0309 30.2529 84.9157 30.1388 86.3809 30.1388C86.8913 30.1388 87.4839 29.878 87.4839 29.3565V25.836L86.7925 25.8686C86.3644 25.8034 87.0394 25.7545 85.8212 25.7545C85.1462 25.7545 84.8005 26.0968 84.8005 26.765H84.784Z" fill="#F03033"/>
<path fill-rule="evenodd" clip-rule="evenodd" d="M53.2576 28.0851C53.2576 26.3412 53.06 26.1294 53.8832 26.1294C54.9862 26.1294 54.7557 26.3738 54.7557 28.0851C54.7557 28.5415 53.2576 28.5415 53.2576 28.0851ZM54.7557 25.2655C54.7557 25.6567 54.8215 25.6078 54.838 25.9664C54.1795 25.6241 52.632 25.4937 52.632 26.5205C52.632 28.0036 52.3521 28.8674 53.8173 28.8674C54.2783 28.8674 54.5746 28.7371 54.838 28.5578V28.786H55.3978V24.4832H54.7722V25.2655H54.7557Z" fill="#F03033"/>
<path fill-rule="evenodd" clip-rule="evenodd" d="M59.6617 26.4391C59.6617 25.999 61.0117 25.999 61.0117 26.4391V26.9932H59.6617V26.4391ZM59.0361 26.602C59.0361 27.857 58.7398 28.8675 60.3861 28.8675C60.7812 28.8675 61.2586 28.786 61.5714 28.7045C61.5714 27.9711 61.3903 28.3948 60.3861 28.3948C59.5465 28.3948 59.6782 28.02 59.6782 27.4495H61.6538C61.6538 26.0153 61.7031 25.7219 60.0733 25.7219C59.4971 25.7219 59.0526 26.0316 59.0526 26.5857L59.0361 26.602Z" fill="#F03033"/>
<path fill-rule="evenodd" clip-rule="evenodd" d="M49.8663 28.0037C49.8663 27.254 49.8663 27.3843 51.2163 27.3843C51.2163 28.7208 51.2986 28.3948 49.9486 28.3948C49.8992 28.2156 49.8663 28.2156 49.8663 28.0037ZM49.4712 25.9664V26.1946C51.0187 26.1946 51.2163 25.7545 51.2163 26.9769C50.1297 26.9769 49.2407 26.7813 49.2407 27.9222C49.2407 28.9979 50.2779 28.9164 50.9693 28.7697C51.2986 28.7045 51.315 28.786 51.8583 28.786C51.8583 25.4612 52.1711 25.7382 49.7181 25.7382C49.5371 25.7382 49.4877 25.7871 49.4877 25.9664H49.4712Z" fill="#F03033"/>
<path fill-rule="evenodd" clip-rule="evenodd" d="M88.8998 26.6835C88.8998 26.4716 88.9328 26.4716 88.9821 26.2923C89.5748 26.0153 89.8053 26.1783 90.2498 26.2109L90.3321 26.9932H88.9163V26.6835H88.8998ZM88.3401 26.5205C88.3401 27.5147 88.1755 28.297 88.7187 28.6556C89.262 28.9978 90.2333 28.8512 90.7931 28.7208V28.2481C90.5626 28.3622 88.8998 28.7371 88.8998 27.7755V27.4658C91.254 27.4658 90.9577 27.6614 90.9577 26.765C90.9577 25.6567 90.1016 25.7545 89.3773 25.7545C88.8504 25.7545 88.3566 26.0316 88.3566 26.5368L88.3401 26.5205Z" fill="#F03033"/>
<path fill-rule="evenodd" clip-rule="evenodd" d="M82.0348 28.0037C82.0348 27.254 82.0348 27.3843 83.3847 27.3843C83.3847 28.7208 83.467 28.3948 82.1171 28.3948C82.0842 28.2156 82.0348 28.2156 82.0348 28.0037ZM81.6397 25.9664V26.1946C83.4506 26.0479 83.3847 25.999 83.3847 26.9769C82.4463 26.9769 81.4092 26.7976 81.4092 27.8407C81.4092 29.4542 83.2201 28.6719 83.4341 28.7045L83.5164 28.7371C83.5329 28.7371 83.5494 28.7534 83.5658 28.7534C83.7634 28.8023 83.7963 28.786 84.0103 28.786C84.0103 25.4612 84.3231 25.7382 81.8701 25.7382C81.689 25.7382 81.6397 25.7871 81.6397 25.9664Z" fill="#F03033"/>
<path fill-rule="evenodd" clip-rule="evenodd" d="M91.7479 25.8197V28.786C92.4393 28.786 92.39 28.8349 92.39 28.1667C92.3735 26.6835 92.1595 26.1294 93.0979 26.1294C93.2625 26.1294 93.6082 26.2272 93.7235 26.2924C93.7235 26.7324 93.7235 27.1725 93.7235 27.6288C93.7235 28.7697 93.5424 28.8023 94.3491 28.8023C94.3491 26.0642 94.6289 25.7545 93.0814 25.7545C92.7357 25.7545 92.5217 25.9175 92.4394 25.9175L91.7314 25.836L91.7479 25.8197Z" fill="#F03033"/>
<path fill-rule="evenodd" clip-rule="evenodd" d="M73.0955 25.8197V28.786H73.721V26.5205C73.721 26.0153 74.7582 26.1457 75.071 26.2923C75.2356 26.9932 75.1533 28.0363 75.1533 28.8023H75.7131V26.4553C75.7131 25.2819 73.8198 25.9175 73.721 25.9012L73.0955 25.836V25.8197Z" fill="#F03033"/>
<path fill-rule="evenodd" clip-rule="evenodd" d="M98.3824 30.0409H99.008C99.0739 29.7475 99.255 29.3401 99.3702 28.9978L100.506 25.8197H99.8805C99.7982 26.1945 99.6665 26.5857 99.5348 26.9605C99.4031 27.3354 99.3702 27.8895 99.0903 28.0851C99.0574 27.7591 98.8598 27.2702 98.7446 26.9442C98.6129 26.5531 98.4647 26.1945 98.3824 25.8197H97.7568C97.7898 26.1782 97.9873 26.5368 98.119 26.8627C98.2672 27.2539 98.8763 28.6392 98.794 28.9489L98.3824 30.0246V30.0409Z" fill="#F03033"/>
<path fill-rule="evenodd" clip-rule="evenodd" d="M68.4365 26.439C68.4365 27.7754 69.128 27.2702 70.2474 27.531V28.3133C69.4078 28.5089 69.1938 28.3133 68.5024 28.3133V28.7859C69.5889 28.7859 70.873 29.2749 70.873 27.6939C70.873 26.8138 69.77 27.0746 69.0621 26.9116C69.0621 25.7382 69.4572 26.1782 70.7249 26.2108V25.7382C69.9676 25.7382 68.4365 25.5589 68.4365 26.439Z" fill="#F03033"/>
<path fill-rule="evenodd" clip-rule="evenodd" d="M64.8803 25.5916C64.8803 25.9012 64.6827 25.8197 64.1724 25.8197V26.2109H64.8803C64.8803 28.2156 64.5839 28.8675 65.9833 28.8675C66.2632 28.8675 66.2961 28.8023 66.543 28.786V28.3949C65.3248 28.3949 65.44 28.8186 65.44 26.2109H66.543V25.8197C65.2425 25.8197 65.44 26.0153 65.44 24.8744H64.8803V25.5753V25.5916Z" fill="#F03033"/>
<path fill-rule="evenodd" clip-rule="evenodd" d="M56.8959 28.7859H57.6039C57.7849 28.3948 57.9496 27.7917 58.1142 27.3354C58.2953 26.8139 58.5093 26.3575 58.641 25.8197H58.0813C57.8837 26.2108 57.5215 27.9384 57.2087 28.1666C57.1429 27.4658 56.5502 26.5205 56.5008 25.8197H55.8752C55.9082 26.2434 56.7642 28.2318 56.8959 28.7859Z" fill="#F03033"/>
<path fill-rule="evenodd" clip-rule="evenodd" d="M95.1391 26.9116C95.1391 28.2318 94.9581 29.1445 97.0653 28.8185C97.5098 28.7533 97.5098 28.8348 97.5098 28.3133C96.9665 28.3296 96.6867 28.5089 95.8471 28.3133C95.6989 27.7102 95.7647 27.2213 95.7647 26.5205C95.7647 25.9011 97.1641 26.1619 97.4275 26.2923V25.8196C96.9336 25.7056 95.6495 25.5915 95.3202 26.0804C95.205 26.2597 95.1391 26.6346 95.1391 26.9116Z" fill="#F03033"/>
<path fill-rule="evenodd" clip-rule="evenodd" d="M62.9872 26.0478V25.8196H62.4275V28.7859H63.0531C63.0531 26.2597 62.7732 26.2108 64.0738 26.2108V25.7381C63.4482 25.7381 63.4976 25.7055 62.9708 26.0478H62.9872Z" fill="#F03033"/>
<path fill-rule="evenodd" clip-rule="evenodd" d="M67.0864 28.7859H67.7285V25.8197H67.0864V28.7859Z" fill="#F03033"/>
<path fill-rule="evenodd" clip-rule="evenodd" d="M71.5972 28.7859H72.2228V25.8197H71.5972V28.7859Z" fill="#F03033"/>
<path fill-rule="evenodd" clip-rule="evenodd" d="M67.0864 25.347H67.4815C67.6626 25.347 67.712 25.2981 67.712 25.1189V24.7277H67.0864V25.347Z" fill="#F03033"/>
<path fill-rule="evenodd" clip-rule="evenodd" d="M71.5972 25.347H71.9923C72.1734 25.347 72.2228 25.2981 72.2228 25.1189V24.7277H71.5972V25.347Z" fill="#F03033"/>
</g>
<defs>
<clipPath id="clip0">
<rect width="101" height="32" fill="white"/>
</clipPath>
</defs>
</svg>
